# xmcd
#
# Track frame offsets:
#	150
#	10964
#	23345
#	37475
#	52214
#	65922
#	80828
#	90357
#	103222
#	120392
#	129963
#	138666
#	149818
#	159935
#
# Disc length: 2324 seconds
#
# Revision: 0
# Processed by: cddbd v1.5.1PL0 Copyright (c) Steve Scherf et al.
# Submitted via: audiograbber 1.83.01
#
DISCID=cb09120e
DTITLE=Barbara Clear - Barbara Clear: Pur and Zeitlos Vol.1
DYEAR=1998
DGENRE=Instrumental Rock
TTITLE0=Silverstallion
TTITLE1=Rosie
TTITLE2=The Nights they drove old Dixie down
TTITLE3=Wings of Fantasy
TTITLE4=Torn
TTITLE5=Me and Bobby McGee
TTITLE6=Walking back to Georgia
TTITLE7=Geronimo
TTITLE8=Der letzte Cowboy
TTITLE9=Proud Mary
TTITLE10=Why walk when you can Fly
TTITLE11=Sixteen tons
TTITLE12=Geisterreiter
TTITLE13=The Rose
EXTD=
EXTT0=
EXTT1=
EXTT2=
EXTT3=
EXTT4=
EXTT5=
EXTT6=
EXTT7=
EXTT8=
EXTT9=
EXTT10=
EXTT11=
EXTT12=
EXTT13=
PLAYORDER=
